<svg width="1685" height="468" viewBox="0 0 1685 468" fill="none" xmlns="http://www.w3.org/2000/svg">
<rect width="1685" height="468" fill="#F5F5F5"/>
<text fill="#002FFF" xml:space="preserve" style="white-space: pre" font-family="Kumbh Sans" font-size="195" font-weight="900" letter-spacing="0em"><tspan x="1277.56" y="192.411">Dev </tspan></text>
<text fill="#0F240C" xml:space="preserve" style="white-space: pre" font-family="Kumbh Sans" font-size="195" font-weight="900" letter-spacing="0em"><tspan x="522.697" y="192.411">Reliable</tspan><tspan x="522.697" y="434.411">Solutions</tspan></text>
<path d="M497.398 146.521C504.854 146.551 510.926 140.531 510.96 133.075C510.994 125.62 504.978 119.551 497.522 119.521L497.398 146.521ZM202.991 145.329L497.398 146.521L497.522 119.521L203.115 118.329L202.991 145.329Z" fill="#0F240C"/>
<path d="M497.129 198.125C504.585 198.125 510.629 192.081 510.629 184.625C510.629 177.169 504.585 171.125 497.129 171.125V198.125ZM196.051 198.125L497.129 198.125V171.125L196.051 171.125V198.125Z" fill="#0F240C"/>
<path d="M497.13 244.266C504.585 244.266 510.63 238.222 510.63 230.766C510.63 223.31 504.585 217.266 497.13 217.266L497.13 244.266ZM189.049 244.266L497.13 244.266L497.13 217.266L189.049 217.266L189.049 244.266Z" fill="#0F240C"/>
<path d="M497.13 290.407C504.585 290.407 510.63 284.363 510.63 276.907C510.63 269.451 504.585 263.407 497.13 263.407V290.407ZM245.064 290.407L497.13 290.407V263.407L245.064 263.407V290.407Z" fill="#0F240C"/>
<path d="M497.129 336.547C504.585 336.547 510.629 330.503 510.629 323.047C510.629 315.592 504.585 309.547 497.129 309.547L497.129 336.547ZM350.091 336.547L497.129 336.547L497.129 309.547L350.091 309.547L350.091 336.547Z" fill="#0F240C"/>
<line y1="-13.5" x2="83.8542" y2="-13.5" transform="matrix(0.834999 0.550251 -0.596692 0.80247 133.035 98.9347)" stroke="#0F240C" stroke-width="27"/>
<path d="M149.264 151.44L192.589 179.603" stroke="#0F240C" stroke-width="27" stroke-linecap="square"/>
<path d="M49.7288 146.7L132.46 146.609" stroke="#0F240C" stroke-width="27" stroke-linecap="square"/>
<path d="M200.367 335.661L246.826 282.396" stroke="#0F240C" stroke-width="27" stroke-linecap="square"/>
<path d="M312.098 365.815L350.337 328.462" stroke="#0F240C" stroke-width="27" stroke-linecap="square"/>
<path d="M188.478 354.933L201.972 354.517L201.034 327.533L187.54 327.949L188.478 354.933ZM95.3363 357.801L141.907 356.367L140.97 329.383L94.3985 330.817L95.3363 357.801ZM141.907 356.367L188.478 354.933L187.54 327.949L140.97 329.383L141.907 356.367Z" fill="#0F240C"/>
<ellipse cx="133.035" cy="79.1603" rx="28.0073" ry="26.3662" fill="#0F240C"/>
<ellipse cx="28.0073" cy="145.076" rx="28.0073" ry="26.3662" fill="#0F240C"/>
<ellipse cx="168.044" cy="230.766" rx="28.0073" ry="26.3662" fill="#0F240C"/>
<ellipse cx="84.0219" cy="342.822" rx="28.0073" ry="26.3662" fill="#0F240C"/>
<ellipse cx="301.078" cy="382.371" rx="28.0073" ry="26.3662" fill="#0F240C"/>
<ellipse cx="133.035" cy="79.1602" rx="7.00182" ry="6.59155" fill="#FEFEFE"/>
<ellipse cx="28.7809" cy="144.367" rx="7.00182" ry="6.59155" fill="#FEFEFE"/>
<ellipse cx="168.044" cy="230.766" rx="7.00182" ry="6.59155" fill="#FEFEFE"/>
<path d="M91.0237 342.822C91.0237 346.463 87.8889 349.414 84.0219 349.414C80.1549 349.414 77.0201 346.463 77.0201 342.822C77.0201 339.182 80.1549 336.231 84.0219 336.231C87.8889 336.231 91.0237 339.182 91.0237 342.822Z" fill="#FEFEFE"/>
<ellipse cx="301.078" cy="382.371" rx="7.00182" ry="6.59155" fill="#FEFEFE"/>
</svg>
